# xmcd
#
# Track frame offsets:
#	150
#	16635
#	34594
#	53070
#	73198
#	92456
#	109710
#	125944
#	142730
#	160239
#	175841
#
# Disc length: 2662 seconds
#
# Revision: 1
# Processed by: cddbd v1.5.2PL0 Copyright (c) Steve Scherf et al.
# Submitted via: audiograbber 1.83.01
#
DISCID=870a640b
DTITLE=Patricia Conroy - Talking to Myself
DYEAR=2007
DGENRE=Canadian Country
TTITLE0=Ray of Sun
TTITLE1=Everything You Do
TTITLE2=End of the Day
TTITLE3=Talking to Myself
TTITLE4=I Know
TTITLE5=Wild Card
TTITLE6=Everyday Ordinary Life
TTITLE7=When
TTITLE8=Here's The Deal
TTITLE9=Til I Hear It From You
TTITLE10=Save Your Breath
EXTD=
EXTT0=
EXTT1=
EXTT2=
EXTT3=
EXTT4=
EXTT5=
EXTT6=
EXTT7=
EXTT8=
EXTT9=
EXTT10=
PLAYORDER=
